<svg xmlns="http://www.w3.org/2000/svg" version="1.1" width="875" height="875">
<rect x="0" y="0" width="875" height="875" fill="#30565a" />
<g transform="scale(3.417969) translate(0.5 0.5)">
<polygon fill="#ffffff" fill-opacity="0.501961" points="271,119 1,-16 -2,271" />
<polygon fill="#f4ffff" fill-opacity="0.501961" points="-16,2 253,230 271,-16" />
<polygon fill="#ffffff" fill-opacity="0.501961" points="-10,241 120,124 -16,0" />
<polygon fill="#ffc3a2" fill-opacity="0.501961" points="181,217 69,-16 93,240" />
<polygon fill="#95ffff" fill-opacity="0.501961" points="261,-16 260,230 152,-13" />
<polygon fill="#002020" fill-opacity="0.501961" points="86,271 83,179 8,224" />
<polygon fill="#603c18" fill-opacity="0.501961" points="195,57 56,37 135,6" />
<polygon fill="#87ecff" fill-opacity="0.501961" points="224,-16 271,213 162,175" />
<polygon fill="#eaffff" fill-opacity="0.501961" points="-16,32 76,14 8,256" />
<polygon fill="#fff03f" fill-opacity="0.501961" points="1,-16 151,-1 -11,30" />
<polygon fill="#d3ad95" fill-opacity="0.501961" points="160,238 70,206 188,36" />
<polygon fill="#101d22" fill-opacity="0.501961" points="271,225 145,261 180,183" />
<polygon fill="#6e5033" fill-opacity="0.501961" points="61,51 69,99 98,14" />
<polygon fill="#71eaff" fill-opacity="0.501961" points="52,31 83,175 34,208" />
<polygon fill="#49381f" fill-opacity="0.501961" points="179,114 151,14 182,47" />
<polygon fill="#ffffff" fill-opacity="0.501961" points="225,271 217,259 262,233" />
<polygon fill="#aaf4ff" fill-opacity="0.501961" points="267,-6 271,59 108,2" />
<polygon fill="#f5c2a5" fill-opacity="0.501961" points="102,23 145,173 172,59" />
<polygon fill="#224147" fill-opacity="0.501961" points="28,247 153,261 47,196" />
<polygon fill="#ffffff" fill-opacity="0.501961" points="-16,197 55,271 9,245" />
<polygon fill="#e6dcce" fill-opacity="0.501961" points="139,235 86,224 173,175" />
<polygon fill="#564632" fill-opacity="0.501961" points="124,188 145,174 96,172" />
<polygon fill="#fffdf5" fill-opacity="0.501961" points="121,100 69,62 148,52" />
<polygon fill="#9e8172" fill-opacity="0.501961" points="143,104 176,77 70,100" />
<polygon fill="#8bdced" fill-opacity="0.501961" points="190,17 242,211 166,174" />
<polygon fill="#2b6264" fill-opacity="0.501961" points="7,222 73,190 69,271" />
<polygon fill="#003837" fill-opacity="0.501961" points="22,255 -16,218 -16,252" />
<polygon fill="#201921" fill-opacity="0.501961" points="77,231 153,233 94,271" />
<polygon fill="#ebffff" fill-opacity="0.501961" points="-16,31 102,8 -4,100" />
<polygon fill="#36696b" fill-opacity="0.501961" points="184,271 202,191 271,212" />
</g>
</svg>