<svg xmlns="http://www.w3.org/2000/svg" width="4032" height="3024"><path fill="#293b53" d="M0 0h4032v3024H0z"/><g fill-opacity=".502"><path fill="#bad0e9" d="M4276.125 1866.375l-4520.25-299.25 4520.25-1638z"/><path d="M2622.375 496.125l299.25 2252.25 330.75-2441.25z"/><path fill="#aac5e8" d="M874.125 574.875l15.75 1181.25 2110.5-220.5z"/><path fill="#b7d2fa" d="M-244.125 1645.875l819-1039.5-63 1071z"/><path d="M2701.125 244.125l1307.25 409.5-2787.75-15.75z"/><path fill="#e6f0f6" d="M3063.375 1393.875l1212.75 346.5-330.75-960.75z"/><path fill="#17160a" d="M2827.125 3268.125l-567-1055.25-2504.25 126z"/><path fill="#396dc8" d="M795.375 622.125l3102.75 94.5-1480.5 425.25z"/><path fill="#5c6d70" d="M1252.125 1693.125l3024 141.75-47.25 913.5z"/><path d="M3000.375 496.125l-236.25 850.5 425.25 708.75z"/><path fill="#0a0800" d="M543.375 3126.375l299.25-2220.75-472.5 976.5z"/><path fill="#1c4da6" d="M1267.875 1267.875l283.5-598.5-1795.5-110.25z"/><path fill="#758cb3" d="M3094.875 559.125l1181.25-535.5-1197-126z"/><path d="M968.625 244.125l-1212.75 330.75 2236.5 31.5z"/><path fill="#58605d" d="M228.375 322.875l2693.25 173.25-189-740.25z"/><path fill="#f8ffff" d="M2779.875 1567.125l-803.25-31.5 708.75-330.75z"/><path d="M39.375 889.875v1433.25l-283.5-897.75zM811.125 1236.375l-47.25-645.75-283.5 488.25z"/><path fill="#4a7ad3" d="M732.375 637.875l-456.75 693-236.25-787.5z"/><path fill="#0a0b00" d="M2795.625 1393.875l330.75 1023.75-378 850.5z"/><path fill="#e2e9ee" d="M748.125 1173.375H70.875v315z"/><path fill="#dde6f3" d="M1819.125 937.125l-378 567-63-693z"/><path fill="#617b92" d="M1141.875 1960.875l913.5-630-740.25 1023.75z"/><path fill="#bac7d5" d="M1976.625 1346.625l-1228.5 393.75 63-535.5z"/><path fill="#5f7588" d="M1866.375 952.875l330.75 1165.5-362.25 189z"/><path d="M3047.625 401.625l-992.25 267.75h897.75z"/><path fill="#2a4b79" d="M842.625 1236.375l866.25-15.75-693-173.25z"/><path fill="#90a6cb" d="M2921.625 700.875l-850.5-31.5 803.25 330.75z"/><path fill="#506d98" d="M464.625 2323.125l-110.25-756-315 614.25z"/><path d="M3866.625 511.875l-141.75 157.5-519.75-63z"/><path fill="#3b4a53" d="M3457.125 2449.125l-78.75-1275.75-346.5 1653.75z"/><path d="M1535.625 2559.375l315-94.5-220.5-708.75z"/><path fill="#d0e5ff" d="M3315.375 1661.625l31.5-504-204.75-283.5z"/><path d="M-244.125 574.875l157.5-378 1338.75 362.25zM3031.875 606.375l-157.5-409.5 189-425.25zM2165.625 2212.875l78.75-378 141.75 567z"/><path fill="#23313f" d="M3457.125 118.125l-204.75 614.25 141.75 456.75z"/><path fill="#6687b9" d="M2984.625 622.125l126 504 1118.25-299.25z"/><path fill="#2456a5" d="M2795.625 1141.875l-582.75 94.5-645.75-598.5z"/><path fill="#0d0300" d="M3142.125 2354.625l-110.25 283.5-913.5-362.25z"/><path fill="#6d8194" d="M3362.625 2354.625l913.5-393.75-929.25-47.25z"/><path fill="#c0cfdd" d="M3425.625 937.125l-47.25 850.5 897.75-897.75z"/><path d="M-86.625 685.125l283.5 267.75-346.5 819z"/><path fill="#54697d" d="M3063.375 1346.625l-724.5 819 378 126z"/><path fill="#7092a9" d="M1157.625 1393.875l-441 362.25 1527.75-15.75z"/><path fill="#4c6d94" d="M1063.125 1834.875l-472.5 47.25 189 425.25z"/><path d="M1189.125 1897.875h-173.25l47.25 409.5z"/><path fill="#263d4a" d="M1330.875 3268.125l-819-787.5 1685.25 126z"/><path fill="#090000" d="M448.875 2260.125l-645.75 220.5h1464.75z"/><path fill="#5b78a0" d="M3094.875 1866.375l-173.25 315 330.75 204.75z"/><path fill="#9ab2ca" d="M1960.875 968.625l834.75 819-929.25-63z"/><path fill="#000a11" d="M1220.625 1141.875l110.25 15.75-31.5-425.25z"/><path fill="#a2b7d0" d="M3850.875 685.125l-63-378 425.25 362.25z"/><path fill="#0d0900" d="M1362.375 2260.125l-126 1008 330.75-78.75z"/><path fill="#3d3d3f" d="M1866.375 1315.125l409.5-110.25h-693z"/><path d="M842.625 606.375l1811.25 31.5-929.25-267.75zM2716.875 1283.625l330.75 204.75-47.25-850.5z"/><path fill="#434e53" d="M-102.375 338.625l2016 94.5-456.75-677.25z"/><path d="M2890.125 480.375l-362.25 204.75 1023.75-78.75z"/><path fill="#0c0901" d="M1362.375 1661.625l-31.5 189 283.5-15.75z"/><path fill="#15202c" d="M1866.375 1189.125l47.25-472.5 78.75 173.25z"/><path fill="#202724" d="M3000.375 1677.375l-551.25 204.75 1134 31.5z"/><path fill="#8093ae" d="M3409.875-181.125l-472.5-63 456.75 771.75z"/><path fill="#090800" d="M3268.125 2181.375l141.75 519.75-141.75 236.25z"/><path fill="#b4c6e0" d="M795.375 1141.875l1197 141.75-1149.75 252z"/><path fill="#060100" d="M889.875 1141.875l-378-173.25 252-204.75z"/><path fill="#313d44" d="M1677.375 2165.625l204.75-819 15.75 425.25z"/><path fill="#3f6fc0" d="M1220.625 1315.125l-362.25-708.75v598.5z"/><path fill="#3b6ec2" d="M2905.875 1000.125l-960.75 141.75 850.5-425.25z"/><path fill="#dbecfa" d="M2039.625 1267.875l661.5-31.5 78.75 267.75z"/><path fill="#020502" d="M637.875 3173.625l-126-1134-141.75 913.5z"/><path fill="#e4eef4" d="M590.625 1189.125l-157.5-94.5-31.5 425.25z"/><path fill="#5d7998" d="M2590.875 2291.625l126-614.25-441 425.25z"/><path fill="#406579" d="M2748.375 2464.875l-267.75 15.75 126 787.5z"/><path fill="#40494a" d="M811.125 1897.875l-220.5-787.5-78.75 551.25z"/><path d="M-244.125 1834.875l630-15.75-630-157.5z"/><path fill="#475159" d="M3189.375 1299.375l-47.25 425.25 189 378z"/><path fill="#76869f" d="M3992.625 543.375l-724.5-31.5 850.5-756z"/><path fill="#475763" d="M1299.375 2071.125l-189-189 47.25-551.25z"/><path fill="#142425" d="M4276.125 3000.375l-1827-204.75 645.75 441z"/></g></svg>